<svg class="svg-icon" style="width: 1em; height: 1em;vertical-align: middle;fill: currentColor;overflow: hidden;" viewBox="0 0 1024 1024" version="1.1" xmlns="http://www.w3.org/2000/svg"><path d="M874.24 320.853333a8.106667 8.106667 0 0 1 0-3.413333 7.253333 7.253333 0 0 1 0-2.986667v-3.84l-2.56-6.4a20.48 20.48 0 0 0-3.84-4.693333l-3.84-3.413333h-2.133333l-168.106667-106.24-158.72-98.133334a36.266667 36.266667 0 0 0-12.373333-6.4h-3.413334a34.986667 34.986667 0 0 0-11.52 0h-4.266666a48.213333 48.213333 0 0 0-14.08 5.546667L170.666667 289.28l-3.84 2.986667-3.84 3.413333-4.266667 2.986667-2.133333 2.56-2.56 6.4v6.4a29.44 29.44 0 0 0 0 8.533333v372.48a42.666667 42.666667 0 0 0 20.053333 36.266667l320 197.973333 6.4 2.56h3.413333a36.693333 36.693333 0 0 0 22.186667 0h3.413333l6.4-2.56L853.333333 734.293333a42.666667 42.666667 0 0 0 20.053334-36.266666V325.546667s0.853333-2.986667 0.853333-4.693334zM512 177.92l75.946667 46.933333-238.506667 147.626667-76.373333-46.933333z m-42.666667 640l-234.666666-143.36V401.92l234.666666 145.066667z m42.666667-346.026667l-81.493333-49.066666 238.506666-148.053334 81.92 50.773334z m277.333333 201.386667L554.666667 819.2v-272.213333l234.666666-145.066667z"  /></svg>